<svg height='100px' width='100px'  fill="#FFFFFF" xmlns="http://www.w3.org/2000/svg" xmlns:xlink="http://www.w3.org/1999/xlink" version="1.1" x="0px" y="0px" viewBox="0 0 32 32" enable-background="new 0 0 32 32" xml:space="preserve"><g><g><path d="M14.5,4.783v12h3v2.434l3.651-2.434H27.5v-12H14.5z M26.5,15.783h-5.651L18.5,17.348v-1.564h-3v-10h11V15.783z"></path><path d="M12.5,13.783h-8v11h6.349c0.567,0.377,2.874,1.916,2.874,1.916l0.777,0.518v-2.434h1v-6h-3V13.783z M14.5,19.783v4h-1    v1.564c-2.35-1.564-2.362-1.564-2.5-1.564H5.5v-9h6v5H14.5z"></path><rect x="18" y="8.783" width="6" height="1"></rect><rect x="18" y="11.783" width="6" height="1"></rect></g></g></svg>