<svg height='100px' width='100px'  fill="#FFFFFF" xmlns="http://www.w3.org/2000/svg" xmlns:xlink="http://www.w3.org/1999/xlink" version="1.1" x="0px" y="0px" viewBox="0 0 32 32" enable-background="new 0 0 32 32" xml:space="preserve"><g><g><path d="M16,9.359c-1.93,0-3.5,1.57-3.5,3.5s1.57,3.5,3.5,3.5s3.5-1.57,3.5-3.5S17.93,9.359,16,9.359z M16,15.359    c-1.378,0-2.5-1.121-2.5-2.5s1.122-2.5,2.5-2.5s2.5,1.121,2.5,2.5S17.378,15.359,16,15.359z"></path><path d="M16,4.359c-4.687,0-8.5,3.814-8.5,8.5c0,4.547,7.785,13.924,8.116,14.32L16,27.641l0.384-0.461    c0.332-0.396,8.116-9.773,8.116-14.32C24.5,8.174,20.687,4.359,16,4.359z M16,26.068c-1.581-1.965-7.5-9.561-7.5-13.209    c0-4.135,3.364-7.5,7.5-7.5s7.5,3.365,7.5,7.5C23.5,16.506,17.581,24.104,16,26.068z"></path></g></g></svg>