<svg height='100px' width='100px'  fill="#FFFFFF" xmlns="http://www.w3.org/2000/svg" xmlns:xlink="http://www.w3.org/1999/xlink" version="1.1" x="0px" y="0px" viewBox="0 0 32 32" enable-background="new 0 0 32 32" xml:space="preserve"><g><g><path d="M19.124,9.376v1c1.378,0,2.5,1.121,2.5,2.5h1C22.624,10.946,21.054,9.376,19.124,9.376z"></path><path d="M19.124,5.376v1c3.584,0,6.5,2.916,6.5,6.5h1C26.624,8.74,23.26,5.376,19.124,5.376z"></path><path d="M16.042,20.907c-0.582-0.219-1.969-0.817-3.05-1.899s-1.681-2.469-1.899-3.05l0.775-0.776l-3.394-5.091L6.275,12.29    c-1.982,1.982-0.585,6.486,3.182,10.253c2.518,2.518,5.511,4.081,7.811,4.081c1.01,0,1.854-0.311,2.444-0.899l2.198-2.199    l-5.091-3.394L16.042,20.907z M20.339,23.682l-1.336,1.337c-0.402,0.402-0.986,0.605-1.736,0.605    c-2.013,0-4.802-1.486-7.104-3.788c-3.258-3.258-4.715-7.306-3.182-8.838l1.337-1.337l2.263,3.394l-0.629,0.63l0.086,0.286    c0.026,0.087,0.665,2.163,2.246,3.744s3.657,2.22,3.745,2.246l0.287,0.087l0.628-0.629L20.339,23.682z"></path></g></g></svg>